# xmcd
#
# Track frame offsets:
#	150
#	14791
#	32568
#	50249
#	69181
#	84732
#	102908
#	116418
#	133406
#	149755
#	169508
#	186824
#	204346
#	221791
#	235609
#
# Disc length: 3326 seconds
#
# Revision: 0
# Processed by: cddbd v1.5.1PL0 Copyright (c) Steve Scherf et al.
# Submitted via: audiograbber 1.83.01
#
DISCID=df0cfc0f
DTITLE=V - CB60213
DYEAR=1900
DGENRE=Karaoke Country
TTITLE0=John Michael Montgomery - That's What I Like About You
TTITLE1=Vince Gill - Shoot Straight From The Heart
TTITLE2=Faith Hill - FIf My Heart Had Wings
TTITLE3=Travis Tritt - It's A Great Day To Be Alive
TTITLE4=Clay Davidsion - Sometimes
TTITLE5=Alison Krauss - Maybe
TTITLE6=Kenny Rogers - There You Go Again
TTITLE7=Neal McCoy - Beatin' It In
TTITLE8=Martina McBride - It's My Time
TTITLE9=Sawyer Brown - Lookin' For Love
TTITLE10=Toby Keith - You Shouldn' tKiss Me LIke This
TTITLE11=Reba McEntire - We're So Good Together
TTITLE12=Don Henley - For My Wedding
TTITLE13=Chris Ledoux - He Rides Wild Horsed
TTITLE14=Trick Pony - Pour Me
EXTD=Chartbuster\n
EXTT0=
EXTT1=
EXTT2=
EXTT3=
EXTT4=
EXTT5=
EXTT6=
EXTT7=
EXTT8=
EXTT9=
EXTT10=
EXTT11=
EXTT12=
EXTT13=
EXTT14=
PLAYORDER=
